<?xml version="1.0" standalone="no"?><!DOCTYPE svg PUBLIC "-//W3C//DTD SVG 1.1//EN" "http://www.w3.org/Graphics/SVG/1.1/DTD/svg11.dtd"><svg t="1620388420365" class="icon" viewBox="0 0 1024 1024" version="1.1" xmlns="http://www.w3.org/2000/svg" p-id="1774" xmlns:xlink="http://www.w3.org/1999/xlink" width="200" height="200"><defs><style type="text/css"></style></defs><path d="M887.04 533.333333a30.293333 30.293333 0 0 1-21.333333-8.96L512 170.666667 158.506667 525.013333a30.293333 30.293333 0 0 1-42.666667-42.666666l360.533333-360.533334a50.773333 50.773333 0 0 1 71.68 0l360.533334 360.533334a30.293333 30.293333 0 0 1-21.333334 51.84zM761.6 917.333333H256a46.293333 46.293333 0 0 1-45.866667-47.786666v-266.666667a29.013333 29.013333 0 0 1 57.813334 0v260.48h481.493333V602.88a29.013333 29.013333 0 0 1 57.813333 0v266.666667A46.293333 46.293333 0 0 1 761.6 917.333333z" fill="#d4237a" p-id="1775"></path></svg>