<?xml version="1.0" standalone="no"?><!DOCTYPE svg PUBLIC "-//W3C//DTD SVG 1.1//EN" "http://www.w3.org/Graphics/SVG/1.1/DTD/svg11.dtd"><svg t="1620388446790" class="icon" viewBox="0 0 1024 1024" version="1.1" xmlns="http://www.w3.org/2000/svg" p-id="1962" xmlns:xlink="http://www.w3.org/1999/xlink" width="200" height="200"><defs><style type="text/css"></style></defs><path d="M941.760462 748.388848 424.000272 748.388848c-66.451458 0-86.34146-25.263383-99.772354-71.807443-38.021965-132.0065-129.60787-455.131805-150.841473-529.97642L82.183256 146.604986c-11.879562 0-21.457708-9.561773-21.457708-21.441335s9.577123-21.457708 21.457708-21.457708L189.663152 103.705943c9.577123 0 18.019399 6.347568 20.61041 15.621792 0 0 112.068402 395.667481 155.254993 545.342386 8.905834 30.92329 13.846356 40.74089 58.472739 40.74089l517.761214 0c11.879562 0 21.521153 9.577123 21.521153 21.457708S953.641047 748.388848 941.760462 748.388848L941.760462 748.388848zM882.953102 563.602262l-539.873838 77.099982-6.043646-42.563398 539.79402-77.099982c42.259476-6.043646 43.474141-12.551874 43.474141-50.701752L920.303778 340.057953c0-23.712051-19.346627-42.97886-42.97886-42.97886l-515.746324 0c-11.864212 0-21.521153-9.577123-21.521153-21.457708 0-11.864212 9.657964-21.521153 21.521153-21.521153l515.746324 0c47.39238 0 85.957721 38.533618 85.957721 85.957721l0 130.280182C963.282638 524.55699 950.826955 553.86448 882.953102 563.602262L882.953102 563.602262zM383.035278 920.30429c-23.760147 0-42.97886-19.298532-42.97886-42.97886 0-23.743774 19.218714-42.97886 42.97886-42.97886s42.97886 19.235087 42.97886 42.97886C426.014138 901.005758 406.795425 920.30429 383.035278 920.30429L383.035278 920.30429zM855.802742 920.30429c-23.760147 0-42.97886-19.298532-42.97886-42.97886 0-23.743774 19.218714-42.97886 42.97886-42.97886s42.97886 19.235087 42.97886 42.97886C898.781602 901.005758 879.562888 920.30429 855.802742 920.30429L855.802742 920.30429z" p-id="1963" fill="#2c2c2c"></path></svg>